<?xml version="1.0" encoding="utf-8"?>
<!-- Generator: Adobe Illustrator 24.2.0, SVG Export Plug-In . SVG Version: 6.00 Build 0)  -->
<svg version="1.1"
	 id="svg3501" inkscape:version="0.92.4 (5da689c313, 2019-01-14)" sodipodi:docname="Nova 1996.svg" xmlns:cc="http://creativecommons.org/ns#" xmlns:dc="http://purl.org/dc/elements/1.1/" xmlns:inkscape="http://www.inkscape.org/namespaces/inkscape" xmlns:rdf="http://www.w3.org/1999/02/22-rdf-syntax-ns#" xmlns:sodipodi="http://sodipodi.sourceforge.net/DTD/sodipodi-0.dtd" xmlns:svg="http://www.w3.org/2000/svg"
	 xmlns="http://www.w3.org/2000/svg" xmlns:xlink="http://www.w3.org/1999/xlink" x="0px" y="0px" viewBox="0 0 1129.3 415.3"
	 style="enable-background:new 0 0 1129.3 415.3;" xml:space="preserve">
<style type="text/css">
	.st0{fill:#1A2B85;}
	.st1{fill:#E2001C;}
</style>
<g>
	<path id="path3535" inkscape:connector-curvature="0" class="st0" d="M864.3,81.5l-97.9,286.1h-65.9L602.7,81.5h87.7l55,181.4
		l56.5-181.4H864.3z"/>
	<path id="path3533" inkscape:connector-curvature="0" class="st0" d="M248.8,367.6h-84.7V206.9c0-19.6-0.8-32.7-2.3-39.9
		c-1.5-7.2-5.3-13.2-10.9-18.1c-6-5.3-13.2-7.5-22.2-7.5c-29.7,0-44.4,21.8-44.4,65.9V368H0V81.9h78.3v48.6c13.2-23,26-38,38.4-44.4
		c12.8-6.8,26.4-9.8,41-9.8c27.1,0,48.9,7.5,65.9,22.2c16.6,14.7,24.8,43.3,24.8,86.2v182.9H248.8z"/>
	<path id="path3537" inkscape:connector-curvature="0" class="st0" d="M1129.3,367.6h-81.7c-2.6-11.3-4.1-26.4-4.1-44.8
		c-14.3,20.3-28.6,33.9-42.9,40.7c-14.3,6.8-30.5,9.8-48.6,9.8c-26.7,0-48.6-7.2-65.1-21.8s-24.5-34.3-24.5-58.7
		c0-18.1,4.9-34.6,14.3-49.7c9.8-15.1,25.2-26.7,46.3-35.4c21.5-8.7,60.2-15.1,116.7-19.2v-16.6c0-27.9-13.9-41.8-41.8-41.8
		c-29.7,0-46.3,13.9-49.7,41.8l-77.9-7.5c5.3-32.4,20.3-55.3,46.3-69.3c25.6-13.6,54.6-20.3,87.3-20.3c19.6,0,37.6,2.3,55,6.8
		s30.5,11.3,40.3,20.3c9.8,9,16.2,18.8,19.6,29c3.4,10.2,5.3,27.5,5.3,52.7v129.9C1124,339,1125.5,357.1,1129.3,367.6L1129.3,367.6z
		 M1039.7,230.6c-59.1,6-88.8,23.7-88.8,53.5c0,10.2,3,18.8,9.4,26c6.4,7.2,15.1,10.9,26.7,10.9c15.1,0,27.5-6,37.3-18.4
		c10.2-12.4,15.4-27.9,15.4-45.9V230.6z"/>
</g>
<path class="st1" d="M618.4,90.1c-26.3-22.9-62.1-35.5-100.8-35.5c-74.3,0-181.7,57.3-181.7,161c0,27.4,9.9,50.9,28.7,67.7
	c18.9,17,45.5,25.9,76.9,25.9c47.8,0,101.7-28.8,107.1-92.1c0.2-1.9-1.1-3.7-2.9-4.2c-1.9-0.5-3.8,0.4-4.7,2.1
	c-19.1,39.8-53.3,63.6-91.6,63.6c-33.6,0-60-24.4-60-55.5c0-25.1,12.2-51.4,33.5-72.1c21.8-21.3,50.4-33.5,78.5-33.5
	c57.5,0,94.6,32.1,94.6,81.8c0,79.7-79.9,152.2-167.7,152.2c-76.6,0-141.3-57.1-141.3-124.7c0-95.5,75.1-177.3,200.9-219.1
	c1.9-0.6,3-2.5,2.7-4.5s-2-3.4-4-3.3C417.8,1.1,353,27.8,304.1,75.2c-46,44.6-72.4,102.5-72.4,158.8c0,47.1,17.2,91.3,48.5,124.3
	c35.3,37.3,85.4,57,144.9,57c57.7,0,116.2-20.7,160.4-56.8c24-19.6,42.8-42.8,56-69.2c14.4-28.7,21.7-60.5,21.7-94.5
	C663.1,151.8,647.7,115.6,618.4,90.1z"/>
</svg>
